<?xml version="1.0" standalone="no"?>
<!DOCTYPE svg PUBLIC "-//W3C//DTD SVG 20010904//EN"
 "http://www.w3.org/TR/2001/REC-SVG-20010904/DTD/svg10.dtd">
<svg version="1.0" xmlns="http://www.w3.org/2000/svg"
 width="206.000000pt" height="206.000000pt" viewBox="0 0 206.000000 206.000000"
 preserveAspectRatio="xMidYMid meet">
<metadata>
Created by potrace 1.14, written by Peter Selinger 2001-2017
</metadata>
<g transform="translate(0.000000,206.000000) scale(0.100000,-0.100000)"
fill="#000000" stroke="none">
<path d="M225 1672 c-6 -4 -10 -53 -10 -110 l0 -103 37 4 c21 2 38 0 38 -5 0
-5 4 -7 9 -3 17 10 71 13 71 3 0 -5 4 -7 9 -3 17 10 71 13 71 3 0 -5 4 -7 9
-3 17 10 71 13 71 3 0 -5 4 -7 9 -3 15 9 71 13 71 5 0 -4 18 -4 40 0 22 4 40
4 40 -1 0 -4 12 -4 28 0 26 8 59 -9 45 -23 -3 -3 -6 -45 -7 -93 -1 -81 -3 -88
-21 -88 -11 0 -26 4 -32 9 -7 5 -13 5 -13 0 0 -5 -23 -9 -50 -9 -28 0 -50 4
-50 8 0 5 -6 5 -12 0 -17 -10 -40 -10 -55 1 -8 5 -13 5 -13 -1 0 -5 -9 -9 -20
-9 -11 0 -20 4 -20 9 0 5 -6 5 -13 -1 -8 -7 -18 -7 -27 -2 -8 5 -21 5 -30 0
-9 -5 -22 -5 -30 0 -7 4 -18 6 -24 4 -26 -10 -76 -11 -76 -1 0 5 -7 4 -15 -3
-11 -9 -15 -9 -15 -1 0 7 -4 10 -9 7 -5 -3 -11 3 -14 14 -3 10 0 21 7 24 7 3
7 5 0 5 -6 1 -9 27 -8 70 2 57 -1 73 -17 87 -15 13 -19 14 -19 3 0 -11 -2 -11
-10 1 -9 13 -10 13 -10 0 0 -13 -1 -13 -10 0 -8 12 -10 12 -10 1 0 -11 -3 -11
-17 0 -9 8 -14 10 -11 4 7 -11 -52 -12 -70 -1 -7 4 -12 3 -12 -3 0 -6 -7 -8
-15 -5 -13 5 -15 -59 -15 -540 l0 -546 108 0 109 0 0 78 c0 43 3 83 6 90 4 6
2 14 -4 18 -8 4 -7 9 2 15 8 5 9 9 3 9 -11 0 -10 122 1 140 3 5 1 11 -5 15 -5
3 -10 11 -10 16 0 6 5 7 12 3 7 -5 8 -3 3 6 -10 15 -13 270 -3 264 4 -2 9 0
13 5 3 6 13 7 22 4 14 -6 68 -7 91 -3 9 1 131 0 189 -2 24 -1 45 1 48 3 2 3
29 2 60 -1 32 -4 59 -2 65 4 7 7 10 6 10 -1 0 -6 9 -9 19 -6 21 5 22 1 20 -72
-4 -156 -3 -275 3 -297 3 -16 4 -28 0 -28 -4 0 -7 -29 -7 -65 0 -36 4 -65 8
-65 5 0 5 -5 1 -12 -4 -6 -7 -34 -8 -62 l0 -51 112 -3 c112 -3 112 -3 108 20
-2 13 0 30 5 39 5 9 5 20 1 24 -11 11 -8 95 3 95 6 0 4 4 -2 8 -13 8 -11 41 3
64 4 6 3 8 -3 5 -7 -4 -10 10 -9 38 0 25 5 45 11 45 7 0 7 3 0 8 -5 4 -10 21
-10 37 0 17 5 33 10 37 6 5 5 8 -3 8 -13 0 -10 38 4 61 4 7 3 9 -3 6 -13 -8
-11 236 2 245 6 5 5 8 -3 8 -13 0 -10 38 4 61 4 7 3 9 -3 6 -6 -4 -9 25 -9 78
1 49 5 85 11 85 6 0 6 3 -1 8 -12 8 -13 72 -1 72 4 0 2 6 -5 14 -7 8 -15 12
-17 10 -2 -2 -12 1 -22 7 -13 7 -19 6 -19 -1 0 -6 -5 -8 -11 -5 -16 10 -69 12
-63 3 6 -10 6 -10 -34 1 -22 7 -32 6 -32 -2 0 -6 -6 -2 -14 8 -10 14 -11 25
-5 37 5 10 6 18 2 18 -9 0 -8 113 1 136 4 12 -39 14 -262 14 -147 0 -271 -4
-277 -8z"/>
<path d="M1083 1653 c-1 -16 -2 -37 -3 -48 -1 -11 1 -32 3 -48 2 -15 1 -30 -3
-32 -4 -3 -5 -19 -3 -37 5 -35 5 -41 3 -73 -1 -11 0 -35 3 -52 2 -18 0 -33 -6
-33 -5 0 -4 -7 3 -15 10 -12 10 -15 -1 -15 -9 0 -10 -3 -4 -8 10 -7 13 -70 4
-87 -3 -5 -4 -21 -2 -35 3 -23 4 -53 2 -82 0 -7 1 -28 4 -45 2 -18 0 -33 -6
-33 -5 0 -4 -7 3 -15 10 -12 10 -15 -1 -15 -9 0 -10 -3 -4 -8 10 -7 13 -70 4
-87 -3 -5 -4 -21 -2 -35 4 -33 4 -149 0 -180 -2 -14 1 -30 5 -37 5 -6 5 -14
-2 -18 -6 -3 -8 -10 -5 -15 10 -17 12 -70 2 -70 -5 0 -4 -7 3 -15 10 -12 10
-15 -1 -15 -10 0 -11 -2 -2 -8 8 -5 9 -13 3 -22 -5 -8 -5 -21 -1 -29 4 -9 6
-26 5 -38 l-1 -23 488 0 488 0 0 110 c1 93 -1 108 -14 104 -8 -4 -15 -1 -15 5
0 7 -8 8 -25 1 -15 -6 -25 -6 -25 0 0 5 -12 5 -29 0 -19 -5 -33 -4 -40 3 -6 6
-11 7 -11 1 0 -5 -9 -10 -20 -10 -11 0 -20 4 -20 8 0 4 -6 5 -14 2 -20 -8
-266 -10 -266 -2 0 4 -12 3 -28 -1 -15 -5 -37 -4 -50 0 -13 5 -21 5 -18 1 3
-5 -11 -8 -29 -8 -19 1 -35 4 -35 8 0 4 -6 5 -13 2 -8 -3 -33 -6 -56 -7 -37
-2 -42 0 -47 23 -3 14 -7 30 -9 37 -2 7 -1 14 3 17 4 2 6 230 4 505 l-2 501
-108 0 -108 0 -1 -27z"/>
</g>
</svg>
